<svg width="60" height="60" viewBox="0 0 60 60" fill="none" xmlns="http://www.w3.org/2000/svg">
<path d="M45 27.5C45 29.175 45 30.825 45 32.5C48 32.5 51.9 32.5 55 32.5C55 30.825 55 29.175 55 27.5C51.9 27.5 48 27.5 45 27.5Z" fill="#49214D"/>
<path d="M40 44.025C42.4 45.8 45.525 48.15 48 50C49 48.675 50 47.325 51 46C48.525 44.15 45.4 41.8 43 40C42 41.35 41 42.7 40 44.025Z" fill="#49214D"/>
<path d="M51 14C50 12.675 49 11.325 48 10C45.525 11.85 42.4 14.2 40 16C41 17.325 42 18.675 43 20C45.4 18.2 48.525 15.875 51 14Z" fill="#49214D"/>
<path d="M10 22.5C7.25 22.5 5 24.75 5 27.5V32.5C5 35.25 7.25 37.5 10 37.5H12.5V47.5H17.5V37.5H20L32.5 45V15L20 22.5H10ZM22.575 26.775L27.5 23.825V36.175L22.575 33.225L21.375 32.5H20H10V27.5H20H21.375L22.575 26.775Z" fill="#49214D"/>
<path d="M38.75 30C38.75 26.675 37.3 23.675 35 21.625V38.35C37.3 36.325 38.75 33.325 38.75 30Z" fill="#49214D"/>
<path opacity="0.3" d="M22.575 26.775L27.5 23.825V36.175L22.575 33.225L21.375 32.5H20H10V27.5H20H21.375L22.575 26.775Z" fill="#E266ED"/>
</svg>
