<svg width="17" height="16" viewBox="0 0 17 16" fill="none" xmlns="http://www.w3.org/2000/svg">
<path fill-rule="evenodd" clip-rule="evenodd" d="M14.4555 0H2.54453C1.41716 0 0.5 0.917188 0.5 2.04456V13.9555C0.5 15.0828 1.41716 16 2.54453 16H14.4555C15.5828 16 16.5 15.0828 16.5 13.9554V2.04456C16.5 0.917188 15.5828 0 14.4555 0ZM15.5576 13.9558C15.5576 14.5635 15.0631 15.0579 14.4555 15.0579H2.54452C1.9368 15.0579 1.4424 14.5635 1.4424 13.9558V12.2368L4.54412 9.59771C4.6573 9.5014 4.82243 9.50049 4.93668 9.59537L6.87962 11.2087C7.06696 11.3643 7.34196 11.3515 7.51412 11.1792L12.1306 6.5556C12.2141 6.472 12.3114 6.46388 12.3621 6.46647C12.4128 6.46907 12.5089 6.48713 12.5833 6.57885L15.5576 10.2411V13.9558H15.5576ZM13.3149 5.9841L15.5576 8.74554V2.04432C15.5576 1.4366 15.0632 0.942196 14.4555 0.942196H2.54452C1.9368 0.942196 1.4424 1.4366 1.4424 2.04432V10.9989L3.9334 8.87945C4.39621 8.48567 5.07133 8.48164 5.5388 8.86982L7.15099 10.2085L11.4637 5.88913C11.713 5.63945 12.0583 5.50689 12.4104 5.5247C12.7628 5.54279 13.0925 5.71023 13.3149 5.9841Z" fill="#E23F3F" fill-opacity="0.8"/>
<path fill-rule="evenodd" clip-rule="evenodd" d="M3.28223 4.2552C3.28223 3.00121 4.30242 1.98096 5.55647 1.98096C6.81053 1.98096 7.83072 3.00118 7.83072 4.2552C7.83072 5.50922 6.8105 6.52945 5.55647 6.52945C4.30245 6.52945 3.28223 5.50922 3.28223 4.2552ZM4.22566 4.2558C4.22566 4.98971 4.82274 5.58682 5.55668 5.58682C6.29063 5.58682 6.88771 4.98971 6.88771 4.2558C6.88771 3.52189 6.29063 2.92478 5.55668 2.92478C4.82274 2.92478 4.22566 3.52186 4.22566 4.2558Z" fill="#E23F3F" fill-opacity="0.8"/>
</svg>
