<svg width="56" height="61" viewBox="0 0 56 61" fill="none" xmlns="http://www.w3.org/2000/svg">
<rect x="0.5" y="4" width="55" height="55" rx="27.5" fill="#FCF7FC"/>
<path fill-rule="evenodd" clip-rule="evenodd" d="M34.4555 24H22.5445C21.4172 24 20.5 24.9172 20.5 26.0446V37.9555C20.5 39.0828 21.4172 40 22.5445 40H34.4555C35.5828 40 36.5 39.0828 36.5 37.9554V26.0446C36.5 24.9172 35.5828 24 34.4555 24ZM35.5576 37.9558C35.5576 38.5635 35.0631 39.0579 34.4555 39.0579H22.5445C21.9368 39.0579 21.4424 38.5635 21.4424 37.9558V36.2368L24.5441 33.5977C24.6573 33.5014 24.8224 33.5005 24.9367 33.5954L26.8796 35.2087C27.067 35.3643 27.342 35.3515 27.5141 35.1792L32.1306 30.5556C32.2141 30.472 32.3114 30.4639 32.3621 30.4665C32.4128 30.4691 32.5089 30.4871 32.5833 30.5788L35.5576 34.2411V37.9558H35.5576ZM33.3149 29.9841L35.5576 32.7455V26.0443C35.5576 25.4366 35.0632 24.9422 34.4555 24.9422H22.5445C21.9368 24.9422 21.4424 25.4366 21.4424 26.0443V34.9989L23.9334 32.8794C24.3962 32.4857 25.0713 32.4816 25.5388 32.8698L27.151 34.2085L31.4637 29.8891C31.713 29.6394 32.0583 29.5069 32.4104 29.5247C32.7628 29.5428 33.0925 29.7102 33.3149 29.9841Z" fill="#E23F3F" fill-opacity="0.8"/>
<path fill-rule="evenodd" clip-rule="evenodd" d="M23.2822 28.2552C23.2822 27.0012 24.3024 25.981 25.5565 25.981C26.8105 25.981 27.8307 27.0012 27.8307 28.2552C27.8307 29.5092 26.8105 30.5294 25.5565 30.5294C24.3025 30.5294 23.2822 29.5092 23.2822 28.2552ZM24.2257 28.2558C24.2257 28.9897 24.8227 29.5868 25.5567 29.5868C26.2906 29.5868 26.8877 28.9897 26.8877 28.2558C26.8877 27.5219 26.2906 26.9248 25.5567 26.9248C24.8227 26.9248 24.2257 27.5219 24.2257 28.2558Z" fill="#E23F3F" fill-opacity="0.8"/>
</svg>
