<svg width="180" height="181" viewBox="0 0 180 181" fill="none" xmlns="http://www.w3.org/2000/svg">
<g opacity="0.6">
<path fill-rule="evenodd" clip-rule="evenodd" d="M125.174 52.936C125.382 52.5764 125.899 52.5764 126.107 52.936L126.88 54.2703C126.905 54.3142 126.948 54.3454 126.997 54.3561L128.498 54.6829C128.903 54.771 129.062 55.2651 128.787 55.5754L127.763 56.7269C127.73 56.7648 127.713 56.8152 127.719 56.8657L127.873 58.4021C127.915 58.8161 127.497 59.1215 127.118 58.9536L125.713 58.331C125.667 58.3105 125.614 58.3105 125.568 58.331L124.163 58.9536C123.784 59.1215 123.366 58.8161 123.408 58.4021L123.562 56.8657C123.567 56.8152 123.551 56.7648 123.517 56.7269L122.494 55.5754C122.218 55.2651 122.378 54.771 122.783 54.6829L124.283 54.3561C124.333 54.3454 124.375 54.3142 124.401 54.2703L125.174 52.936ZM125.796 53.1182C125.727 52.9983 125.554 52.9983 125.485 53.1182L124.712 54.4525C124.636 54.5842 124.508 54.6776 124.36 54.7099L122.859 55.0367C122.724 55.0661 122.671 55.2308 122.763 55.3342L123.786 56.4857C123.887 56.5994 123.936 56.7505 123.92 56.9022L123.766 58.4385C123.752 58.5765 123.891 58.6783 124.017 58.6224L125.423 57.9997C125.561 57.9382 125.719 57.9382 125.858 57.9997L127.263 58.6224C127.39 58.6783 127.529 58.5765 127.515 58.4385L127.36 56.9022C127.345 56.7505 127.394 56.5994 127.495 56.4857L128.518 55.3342C128.61 55.2308 128.557 55.0661 128.422 55.0367L126.921 54.7099C126.773 54.6776 126.645 54.5842 126.569 54.4525L125.796 53.1182Z" fill="#E266ED"/>
<path opacity="0.796364" fill-rule="evenodd" clip-rule="evenodd" d="M43.0298 23.5349C43.1468 23.9341 42.7922 24.3119 42.3891 24.2173L39.0921 23.4438C39.0429 23.4323 38.9911 23.4421 38.9494 23.4708L36.157 25.3957C35.8156 25.631 35.3488 25.4085 35.3136 24.9939L35.0264 21.6018C35.0221 21.5512 34.9968 21.5047 34.9568 21.4737L32.2733 19.398C31.9453 19.1442 32.0114 18.629 32.3927 18.4673L35.5122 17.1443C35.5587 17.1246 35.5949 17.0861 35.6118 17.0382L36.7458 13.8305C36.8844 13.4383 37.3922 13.3423 37.663 13.6571L39.8782 16.2315C39.9113 16.2699 39.9589 16.2926 40.0094 16.294L43.3937 16.3872C43.8074 16.3986 44.0551 16.8546 43.8411 17.2108L42.0907 20.1248C42.0646 20.1683 42.0579 20.2209 42.0721 20.2696L43.0298 23.5349ZM42.4709 23.8648C42.6053 23.8963 42.7235 23.7704 42.6845 23.6373L41.7268 20.372C41.684 20.2258 41.7042 20.0682 41.7826 19.9377L43.533 17.0236C43.6043 16.9049 43.5217 16.7529 43.3838 16.7491L39.9995 16.6559C39.848 16.6517 39.7052 16.5837 39.606 16.4684L37.3908 13.8939C37.3005 13.789 37.1312 13.821 37.085 13.9517L35.951 17.1594C35.9003 17.3031 35.7918 17.4186 35.6521 17.4779L32.5326 18.8008C32.4055 18.8547 32.3835 19.0265 32.4928 19.1111L35.1763 21.1868C35.2964 21.2797 35.3722 21.4192 35.3851 21.5711L35.6723 24.9632C35.684 25.1014 35.8397 25.1755 35.9535 25.0971L38.7459 23.1722C38.8709 23.086 39.0263 23.0567 39.1739 23.0913L42.4709 23.8648Z" fill="#E266ED"/>
<path opacity="0.73011" fill-rule="evenodd" clip-rule="evenodd" d="M33.529 139.201C33.931 139.3 34.0776 139.798 33.7937 140.101L32.1238 141.883C32.0892 141.92 32.0716 141.97 32.0753 142.02L32.2562 144.462C32.2869 144.877 31.861 145.171 31.4869 144.993L29.2857 143.947C29.24 143.925 29.1874 143.924 29.1406 143.943L26.8873 144.87C26.5043 145.028 26.0945 144.712 26.1471 144.299L26.4566 141.87C26.463 141.82 26.4481 141.769 26.4154 141.73L24.8419 139.862C24.5745 139.544 24.7471 139.055 25.1538 138.978L27.5462 138.523C27.5959 138.514 27.6393 138.484 27.6659 138.44L28.9467 136.358C29.1644 136.004 29.6809 136.018 29.8796 136.383L31.0488 138.531C31.073 138.575 31.1148 138.608 31.1639 138.62L33.529 139.201ZM33.5317 139.853C33.6263 139.752 33.5775 139.586 33.4435 139.553L31.0784 138.971C30.9311 138.935 30.8058 138.838 30.733 138.705L29.5638 136.557C29.4976 136.435 29.3254 136.431 29.2529 136.549L27.972 138.631C27.8923 138.761 27.762 138.851 27.613 138.879L25.2206 139.333C25.085 139.359 25.0275 139.522 25.1166 139.628L26.6901 141.496C26.7881 141.613 26.8329 141.765 26.8137 141.916L26.5042 144.345C26.4867 144.482 26.6232 144.588 26.7509 144.535L29.0042 143.608C29.1445 143.55 29.3025 143.554 29.4396 143.619L31.6407 144.666C31.7655 144.725 31.9074 144.627 31.8972 144.489L31.7163 142.047C31.705 141.895 31.7579 141.745 31.8618 141.635L33.5317 139.853Z" fill="#E266ED"/>
<path opacity="0.902331" d="M159.019 95.6423C159.201 95.8508 159.092 96.1792 158.822 96.2355L155.506 96.9266C155.408 96.9473 155.322 97.0088 155.27 97.0962L153.54 100.023C153.399 100.261 153.055 100.258 152.918 100.017L151.24 97.0604C151.19 96.9721 151.105 96.9091 151.007 96.8867L147.704 96.1369C147.435 96.0758 147.332 95.7454 147.517 95.5402L149.795 93.0217C149.863 92.9465 149.897 92.846 149.888 92.7448L149.576 89.3549C149.551 89.0786 149.831 88.8775 150.083 88.9917L153.169 90.3919C153.261 90.4337 153.366 90.4346 153.459 90.3945L156.569 89.0492C156.822 88.9396 157.099 89.1456 157.069 89.4214L156.698 92.8053C156.687 92.9063 156.719 93.0074 156.786 93.0837L159.019 95.6423Z" fill="#E266ED"/>
<path opacity="0.370759" d="M18.454 64.9016C18.5372 64.6371 18.8732 64.5611 19.061 64.7643L20.4324 66.2485C20.5012 66.323 20.598 66.3649 20.699 66.3641L22.7137 66.3479C22.9896 66.3457 23.1653 66.6436 23.0311 66.886L22.0512 68.6561C22.002 68.7449 21.9922 68.8504 22.0242 68.9468L22.6621 70.8685C22.7495 71.1317 22.5221 71.3918 22.2513 71.3384L20.2743 70.9482C20.1751 70.9286 20.0723 70.9518 19.991 71.0122L18.3706 72.2161C18.1487 72.381 17.8324 72.2439 17.7993 71.9684L17.5574 69.9571C17.5452 69.8563 17.4915 69.7651 17.4092 69.7061L15.7698 68.5284C15.5453 68.3671 15.5773 68.0223 15.8276 67.9055L17.6551 67.0526C17.7468 67.0098 17.8163 66.9303 17.8468 66.8334L18.454 64.9016Z" fill="#E266ED"/>
<path opacity="0.806242" d="M39.5512 102.995C39.4124 103.235 39.0679 103.235 38.9291 102.995L37.225 100.053C37.1742 99.9657 37.0889 99.9034 36.9901 99.8819L33.6813 99.1615C33.4116 99.1028 33.3051 98.7734 33.489 98.5665L35.7447 96.0278C35.812 95.9521 35.8446 95.8513 35.8344 95.7502L35.4932 92.3632C35.4654 92.0871 35.7441 91.8835 35.9966 91.9954L39.0947 93.3681C39.1872 93.4091 39.2925 93.4091 39.385 93.3681L42.4831 91.9952C42.7355 91.8833 43.0142 92.0869 42.9864 92.3629L42.6455 95.75C42.6353 95.8511 42.6678 95.9518 42.7352 96.0276L44.991 98.5662C45.1749 98.773 45.0684 99.1024 44.7988 99.1612L41.49 99.8818C41.3912 99.9033 41.3059 99.9656 41.2551 100.053L39.5512 102.995Z" fill="#E266ED"/>
<path opacity="0.547916" d="M103.538 23.4987C103.264 23.5328 103.055 23.2572 103.161 23.0009L104.457 19.8559C104.496 19.7621 104.494 19.6561 104.451 19.5641L103.017 16.4799C102.9 16.2286 103.097 15.9439 103.372 15.9658L106.747 16.2336C106.848 16.2416 106.947 16.2067 107.021 16.1373L109.495 13.8134C109.697 13.624 110.026 13.7237 110.091 13.9935L110.88 17.3039C110.904 17.4028 110.968 17.4871 111.056 17.5363L114.019 19.1841C114.26 19.3184 114.268 19.6647 114.032 19.8096L111.145 21.5877C111.059 21.6408 110.999 21.7279 110.98 21.8277L110.337 25.17C110.284 25.4424 109.959 25.5567 109.75 25.3765L107.176 23.1649C107.099 23.0989 106.998 23.0684 106.898 23.0809L103.538 23.4987Z" fill="#E266ED"/>
<path opacity="0.392959" d="M105.768 166.478C105.649 166.728 105.306 166.756 105.148 166.528L103.217 163.732C103.159 163.649 103.069 163.593 102.969 163.58L99.6138 163.126C99.3403 163.089 99.2081 162.77 99.375 162.549L101.423 159.838C101.484 159.757 101.508 159.654 101.49 159.554L100.882 156.205C100.833 155.932 101.094 155.706 101.355 155.798L104.552 156.918C104.647 156.952 104.752 156.943 104.841 156.895L107.821 155.279C108.064 155.147 108.357 155.328 108.352 155.605L108.28 159.009C108.278 159.11 108.318 159.208 108.391 159.278L110.841 161.628C111.04 161.82 110.96 162.157 110.696 162.237L107.455 163.22C107.358 163.249 107.278 163.318 107.234 163.41L105.768 166.478Z" fill="#E266ED"/>
</g>
<g clip-path="url(#clip0)">
<path fill-rule="evenodd" clip-rule="evenodd" d="M105.483 87.9248C108.912 84.496 108.912 78.9367 105.483 75.5077C102.054 72.0788 96.495 72.0788 93.0662 75.5077C85.1575 84.0707 96.9252 95.8321 105.483 87.9248Z" fill="#E266ED" fill-opacity="0.6"/>
<path fill-rule="evenodd" clip-rule="evenodd" d="M75.1315 110.644L70.3476 105.86C66.2815 106.676 62.4404 108.633 59.33 111.743C54.9124 116.161 52.8211 122.053 53.022 127.97C63.3295 128.545 73.2746 120.921 75.1315 110.644Z" fill="#E266ED" fill-opacity="0.6"/>
<path d="M127.065 54.9603C126.93 54.4554 126.536 54.0611 126.031 53.9257C109.442 48.9468 89.1545 64.9172 78.1359 81.1862C70.632 80.2387 62.8521 82.9041 57.5224 88.2876C55.9858 89.8243 54.6557 91.5578 53.5691 93.4398C53.3466 93.8252 53.3116 94.2908 53.4739 94.705C53.6361 95.1194 53.9781 95.4372 54.4031 95.569L68.1659 99.8348C67.7475 101.006 67.3807 102.158 67.0694 103.286C66.9292 103.794 67.0726 104.338 67.4451 104.71L76.281 113.546C76.6539 113.92 77.2033 114.062 77.7052 113.922C78.833 113.611 79.9855 113.244 81.1566 112.826L85.4224 126.588C85.554 127.013 85.872 127.355 86.2864 127.518C86.6994 127.68 87.1657 127.645 87.5516 127.422C89.4336 126.336 91.1671 125.006 92.7038 123.469C95.5262 120.647 97.5736 117.302 98.7895 113.528C99.8908 110.109 100.239 106.431 99.805 102.855C116.078 91.8382 132.046 71.535 127.065 54.9603ZM57.0958 93.3399C57.8372 92.2746 58.6724 91.276 59.5915 90.3568C63.9876 85.9607 70.0893 83.6483 76.255 83.9599C73.4059 88.3255 71.001 92.8009 69.2218 97.0982L57.0958 93.3399ZM70.1239 103.251C70.6519 101.481 71.3317 99.6226 72.1477 97.7075L83.2836 108.843C81.3685 109.659 79.5097 110.339 77.7403 110.867L70.1239 103.251ZM90.6343 121.399C89.7153 122.318 88.7165 123.154 87.6512 123.895L83.8928 111.769C88.1914 109.989 92.6681 107.584 97.035 104.733C97.3725 110.954 95.097 116.937 90.6343 121.399ZM86.1294 107.55L73.4407 94.8617C79.6752 81.9238 91.5076 67.2303 104.534 60.1888C105.44 64.1587 107.425 67.7522 110.332 70.6593C113.239 73.5665 116.832 75.5512 120.802 76.4569C113.761 89.4836 99.0672 101.316 86.1294 107.55ZM122.146 73.7486C114.55 72.3097 108.681 66.4411 107.243 58.8453C112.929 56.28 118.78 55.2616 124.444 56.5473C125.73 62.2108 124.711 68.0627 122.146 73.7486Z" fill="#555367"/>
</g>
<defs>
<clipPath id="clip0">
<rect width="75" height="75" fill="white" transform="translate(53 53)"/>
</clipPath>
</defs>
</svg>
